<svg width="423" height="114" viewBox="0 0 423 114" fill="none" xmlns="http://www.w3.org/2000/svg">
<g clip-path="url(#clip0_49_156)">
<path d="M51.4 53.94L64.12 26.39H77.9L57.83 65.39V87.54H45V65.36L25 26.39H38.76L51.4 53.94Z" fill="white"/>
<path d="M80.65 64.4C80.5704 60.236 81.4605 56.1107 83.25 52.35C84.8786 48.934 87.4902 46.0822 90.75 44.16C94.1988 42.1782 98.1232 41.1755 102.1 41.26C108.233 41.26 113.233 43.1367 117.1 46.89C120.967 50.6433 123.127 55.7367 123.58 62.17L123.67 65.28C123.67 72.2467 121.723 77.84 117.83 82.06C113.937 86.28 108.717 88.3833 102.17 88.37C95.6233 88.37 90.3933 86.2733 86.48 82.08C82.5667 77.8867 80.6233 72.1733 80.65 64.94V64.4ZM92.78 65.26C92.78 69.58 93.5933 72.88 95.22 75.16C96.0364 76.2203 97.0853 77.0789 98.2859 77.6697C99.4866 78.2606 100.807 78.5678 102.145 78.5678C103.483 78.5678 104.803 78.2606 106.004 77.6697C107.205 77.0789 108.254 76.2203 109.07 75.16C110.73 72.9133 111.557 69.3067 111.55 64.34C111.55 60.1 110.723 56.8167 109.07 54.49C108.295 53.3619 107.246 52.4495 106.022 51.839C104.797 51.2284 103.437 50.9396 102.07 51C100.723 50.9449 99.3836 51.2346 98.1796 51.8419C96.9755 52.4491 95.9465 53.3537 95.19 54.47C93.5833 56.8233 92.78 60.42 92.78 65.26Z" fill="white"/>
<path d="M161 82.92C158.013 86.56 153.87 88.3766 148.57 88.37C143.697 88.37 139.98 86.9733 137.42 84.18C134.86 81.3866 133.553 77.2833 133.5 71.87V42.1H145.63V71.49C145.63 76.2233 147.787 78.59 152.1 78.59C156.22 78.59 159.047 77.16 160.58 74.3V42.1H172.76V87.54H161.29L161 82.92Z" fill="white"/>
<path d="M233.24 67.17C232.76 73.7233 230.347 78.9033 226 82.71C221.653 86.5167 215.88 88.4033 208.68 88.37C200.84 88.37 194.677 85.7333 190.19 80.46C185.703 75.1867 183.44 67.9433 183.4 58.73V55C183.289 49.656 184.347 44.3523 186.5 39.46C188.374 35.2202 191.465 31.6321 195.38 29.15C199.423 26.7065 204.077 25.4615 208.8 25.56C215.86 25.56 221.527 27.45 225.8 31.23C230.073 35.01 232.563 40.3167 233.27 47.15H220.73C220.417 43.1967 219.317 40.3333 217.43 38.56C215.543 36.7867 212.667 35.8967 208.8 35.89C204.6 35.89 201.457 37.3967 199.37 40.41C197.283 43.4233 196.213 48.09 196.16 54.41V59C196.16 65.6067 197.16 70.4367 199.16 73.49C201.16 76.5433 204.317 78.07 208.63 78.07C212.523 78.07 215.43 77.18 217.35 75.4C219.27 73.62 220.367 70.87 220.64 67.15L233.24 67.17Z" fill="#4583C4"/>
<path d="M241.41 64.4C241.327 60.2368 242.214 56.1115 244 52.35C245.629 48.934 248.24 46.0822 251.5 44.16C254.949 42.1782 258.873 41.1755 262.85 41.26C268.977 41.26 273.977 43.1367 277.85 46.89C281.723 50.6433 283.883 55.7367 284.33 62.17L284.42 65.28C284.42 72.2467 282.473 77.84 278.58 82.06C274.687 86.28 269.493 88.3833 263 88.37C256.447 88.37 251.217 86.2733 247.31 82.08C243.403 77.8867 241.453 72.1733 241.46 64.94L241.41 64.4ZM253.54 65.26C253.54 69.58 254.353 72.88 255.98 75.16C256.796 76.2203 257.845 77.0789 259.046 77.6697C260.247 78.2606 261.567 78.5678 262.905 78.5678C264.243 78.5678 265.563 78.2606 266.764 77.6697C267.965 77.0789 269.014 76.2203 269.83 75.16C271.49 72.9133 272.317 69.3067 272.31 64.34C272.31 60.1 271.483 56.8167 269.83 54.49C269.055 53.3619 268.006 52.4495 266.782 51.839C265.557 51.2284 264.197 50.9396 262.83 51C261.487 50.9578 260.156 51.2578 258.961 51.8718C257.766 52.4859 256.747 53.3937 256 54.51C254.36 56.8367 253.54 60.42 253.54 65.26Z" fill="#4583C4"/>
<path d="M292.61 64.48C292.61 57.4 294.2 51.76 297.38 47.56C298.87 45.5308 300.833 43.8961 303.099 42.7982C305.364 41.7003 307.864 41.1722 310.38 41.26C312.471 41.2148 314.546 41.6407 316.45 42.5062C318.354 43.3718 320.039 44.6547 321.38 46.26V23H333.56V87.5H322.56L322 82.71C320.638 84.5084 318.87 85.9588 316.84 86.9426C314.81 87.9263 312.575 88.4155 310.32 88.37C307.824 88.437 305.35 87.8979 303.108 86.799C300.867 85.7 298.925 84.0739 297.45 82.06C294.23 77.84 292.617 71.98 292.61 64.48ZM304.75 65.38C304.75 69.6533 305.49 72.92 306.97 75.18C307.649 76.2715 308.606 77.1627 309.743 77.762C310.88 78.3613 312.156 78.6471 313.44 78.59C317.193 78.59 319.84 77.0067 321.38 73.84V55.84C319.873 52.6667 317.253 51.0833 313.52 51.09C307.673 51.1167 304.75 55.88 304.75 65.38Z" fill="#4583C4"/>
<path d="M366.45 88.37C359.783 88.37 354.36 86.3267 350.18 82.24C346 78.1533 343.907 72.71 343.9 65.91V64.73C343.831 60.5005 344.737 56.312 346.55 52.49C348.166 49.0501 350.756 46.1605 354 44.18C357.348 42.2002 361.181 41.1893 365.07 41.26C371.277 41.26 376.17 43.22 379.75 47.14C383.33 51.06 385.113 56.6167 385.1 63.81V68.81H356.21C356.48 71.5441 357.743 74.0844 359.76 75.95C361.817 77.7781 364.5 78.7418 367.25 78.64C369.357 78.7432 371.458 78.3351 373.374 77.4505C375.289 76.5659 376.962 75.2311 378.25 73.56L384.25 80.24C382.362 82.8595 379.811 84.9302 376.86 86.24C373.59 87.7108 370.035 88.4383 366.45 88.37ZM365.07 51C363.974 50.9609 362.883 51.1596 361.871 51.5826C360.86 52.0055 359.952 52.6426 359.21 53.45C357.559 55.4354 356.554 57.8777 356.33 60.45H373.21V59.45C373.28 57.1818 372.491 54.9709 371 53.26C370.225 52.4893 369.296 51.8899 368.275 51.5006C367.253 51.1112 366.162 50.9407 365.07 51Z" fill="#4583C4"/>
<path d="M412.71 69.59V103.41H381.06V113.66H422.96V111.48V103.41V69.59H412.71Z" fill="white"/>
<path d="M41.89 0H0V2.18V10.24V44.07H10.24V10.24H41.89V0Z" fill="white"/>
<path d="M258.18 109.47V111.9H256.76V105H259.45C259.923 104.991 260.391 105.09 260.82 105.29C261.196 105.465 261.513 105.746 261.73 106.1C261.945 106.459 262.056 106.871 262.05 107.29C262.062 107.592 262.005 107.893 261.884 108.17C261.763 108.448 261.58 108.694 261.35 108.89C260.802 109.311 260.12 109.52 259.43 109.48L258.18 109.47ZM258.18 108.31H259.45C259.759 108.332 260.065 108.239 260.31 108.05C260.411 107.952 260.489 107.833 260.541 107.702C260.593 107.571 260.616 107.431 260.61 107.29C260.617 107.14 260.594 106.991 260.542 106.85C260.491 106.709 260.412 106.58 260.31 106.47C260.203 106.362 260.075 106.278 259.934 106.223C259.793 106.168 259.641 106.143 259.49 106.15H258.18V108.31Z" fill="white"/>
<path d="M269 108.6C269.014 109.216 268.891 109.827 268.64 110.39C268.431 110.874 268.083 111.285 267.64 111.57C267.178 111.855 266.643 112.001 266.1 111.99C265.562 111.997 265.032 111.855 264.57 111.58C264.132 111.289 263.785 110.88 263.57 110.4C263.315 109.849 263.188 109.247 263.2 108.64V108.3C263.187 107.681 263.31 107.067 263.56 106.5C263.775 106.017 264.121 105.605 264.56 105.31C265.027 105.042 265.556 104.9 266.095 104.9C266.634 104.9 267.163 105.042 267.63 105.31C268.069 105.605 268.415 106.017 268.63 106.5C268.879 107.063 269.001 107.674 268.99 108.29L269 108.6ZM267.56 108.29C267.596 107.714 267.46 107.139 267.17 106.64C267.05 106.458 266.884 106.31 266.69 106.212C266.495 106.114 266.278 106.068 266.06 106.08C265.845 106.071 265.631 106.117 265.439 106.213C265.247 106.309 265.082 106.453 264.96 106.63C264.668 107.125 264.532 107.697 264.57 108.27V108.6C264.536 109.173 264.672 109.744 264.96 110.24C265.083 110.419 265.248 110.566 265.441 110.668C265.633 110.769 265.847 110.822 266.065 110.822C266.283 110.822 266.497 110.769 266.689 110.668C266.882 110.566 267.047 110.419 267.17 110.24C267.461 109.748 267.597 109.18 267.56 108.61V108.29Z" fill="white"/>
<path d="M275.69 109.91L276.61 104.99H278L276.47 111.9H275.04L273.91 107.28L272.79 111.9H271.36L269.86 105H271.28L272.21 109.91L273.35 105H274.55L275.69 109.91Z" fill="white"/>
<path d="M283.24 108.91H280.51V110.75H283.72V111.9H279.09V105H283.71V106.16H280.51V107.8H283.24V108.91Z" fill="white"/>
<path d="M287.4 109.37H286.27V111.9H284.84V105H287.41C288.081 104.96 288.746 105.154 289.29 105.55C289.515 105.736 289.692 105.973 289.809 106.24C289.925 106.508 289.977 106.799 289.96 107.09C289.976 107.505 289.868 107.916 289.65 108.27C289.421 108.603 289.102 108.863 288.73 109.02L290.22 111.84V111.91H288.69L287.4 109.37ZM286.27 108.22H287.41C287.711 108.24 288.009 108.144 288.24 107.95C288.341 107.852 288.419 107.733 288.471 107.602C288.523 107.471 288.546 107.331 288.54 107.19C288.549 107.051 288.529 106.911 288.48 106.78C288.432 106.65 288.357 106.53 288.26 106.43C288.144 106.329 288.009 106.252 287.863 106.204C287.717 106.156 287.563 106.138 287.41 106.15H286.27V108.22Z" fill="white"/>
<path d="M295.48 108.91H292.75V110.75H296V111.9H291.37V105H296V106.16H292.8V107.8H295.53L295.48 108.91Z" fill="white"/>
<path d="M297.08 111.9V105H299.21C299.78 104.993 300.341 105.135 300.84 105.41C301.316 105.687 301.704 106.093 301.96 106.58C302.235 107.111 302.372 107.702 302.36 108.3V108.62C302.372 109.215 302.235 109.803 301.96 110.33C301.71 110.816 301.325 111.219 300.85 111.49C300.351 111.766 299.79 111.91 299.22 111.91L297.08 111.9ZM298.51 106.15V110.75H299.19C299.431 110.765 299.671 110.724 299.893 110.63C300.116 110.537 300.313 110.393 300.47 110.21C300.789 109.755 300.948 109.206 300.92 108.65V108.28C300.958 107.715 300.803 107.155 300.48 106.69C300.325 106.507 300.13 106.362 299.909 106.269C299.689 106.175 299.449 106.134 299.21 106.15H298.51Z" fill="white"/>
<path d="M306.39 111.9V105H308.81C309.483 104.953 310.153 105.125 310.72 105.49C310.936 105.654 311.108 105.868 311.221 106.114C311.335 106.36 311.386 106.63 311.37 106.9C311.373 107.216 311.283 107.526 311.11 107.79C310.931 108.05 310.676 108.249 310.38 108.36C310.714 108.431 311.012 108.619 311.22 108.89C311.428 109.181 311.533 109.533 311.52 109.89C311.538 110.173 311.49 110.457 311.381 110.718C311.272 110.98 311.104 111.213 310.89 111.4C310.361 111.769 309.724 111.952 309.08 111.92L306.39 111.9ZM307.82 107.9H308.87C309.59 107.9 309.94 107.6 309.94 107.04C309.952 106.913 309.933 106.786 309.886 106.668C309.839 106.55 309.765 106.444 309.67 106.36C309.41 106.208 309.11 106.138 308.81 106.16H307.81L307.82 107.9ZM307.82 108.9V110.76H309C309.282 110.775 309.561 110.694 309.79 110.53C309.885 110.447 309.96 110.344 310.008 110.228C310.057 110.112 310.078 109.986 310.07 109.86C310.093 109.724 310.082 109.584 310.04 109.452C309.998 109.321 309.925 109.201 309.827 109.103C309.729 109.005 309.609 108.932 309.478 108.89C309.346 108.848 309.206 108.838 309.07 108.86L307.82 108.9Z" fill="white"/>
<path d="M315 108.1L316.44 104.99H318L315.74 109.39V111.9H314.29V109.39L312 105H313.56L315 108.1Z" fill="white"/>
<path d="M325.2 110.09C325.208 109.972 325.187 109.853 325.138 109.745C325.089 109.637 325.014 109.542 324.92 109.47C324.613 109.265 324.275 109.11 323.92 109.01C323.517 108.889 323.125 108.732 322.75 108.54C322.411 108.398 322.121 108.161 321.913 107.857C321.705 107.554 321.59 107.197 321.58 106.83C321.573 106.472 321.682 106.121 321.89 105.83C322.121 105.52 322.437 105.284 322.8 105.15C323.218 104.976 323.667 104.891 324.12 104.9C324.574 104.892 325.025 104.985 325.44 105.17C325.804 105.332 326.115 105.591 326.34 105.92C326.554 106.25 326.665 106.637 326.66 107.03H325.24C325.248 106.894 325.225 106.757 325.173 106.631C325.121 106.504 325.042 106.391 324.94 106.3C324.704 106.107 324.404 106.011 324.1 106.03C323.813 106.015 323.53 106.092 323.29 106.25C323.197 106.315 323.122 106.402 323.071 106.503C323.021 106.604 322.996 106.717 323 106.83C323.001 106.947 323.033 107.061 323.093 107.161C323.153 107.261 323.238 107.343 323.34 107.4C323.651 107.588 323.988 107.729 324.34 107.82C324.988 107.986 325.59 108.297 326.1 108.73C326.282 108.904 326.426 109.114 326.522 109.346C326.619 109.578 326.666 109.828 326.66 110.08C326.669 110.351 326.612 110.62 326.493 110.864C326.375 111.108 326.198 111.319 325.98 111.48C325.441 111.844 324.799 112.023 324.15 111.99C323.652 111.994 323.158 111.896 322.7 111.7C322.297 111.535 321.95 111.257 321.7 110.9C321.464 110.556 321.342 110.147 321.35 109.73H322.78C322.78 110.49 323.23 110.87 324.14 110.87C324.422 110.887 324.702 110.813 324.94 110.66C325.026 110.593 325.095 110.507 325.141 110.407C325.186 110.308 325.206 110.199 325.2 110.09Z" fill="white"/>
<path d="M329.39 111.9H328V105H329.42L329.39 111.9Z" fill="white"/>
<path d="M332.86 105L334.64 110L336.4 105H338.27V111.91H336.84V110L336.98 106.74L335.12 111.89H334.12L332.26 106.75L332.41 110V111.89H331V105H332.86Z" fill="white"/>
<path d="M341.22 109.47V111.9H339.8V105H342.49C342.963 104.991 343.431 105.09 343.86 105.29C344.236 105.465 344.553 105.746 344.77 106.1C344.985 106.459 345.096 106.871 345.09 107.29C345.102 107.592 345.045 107.893 344.924 108.17C344.803 108.448 344.62 108.694 344.39 108.89C343.842 109.311 343.16 109.52 342.47 109.48L341.22 109.47ZM341.22 108.31H342.49C342.799 108.33 343.104 108.238 343.35 108.05C343.451 107.952 343.529 107.833 343.581 107.702C343.633 107.571 343.656 107.431 343.65 107.29C343.657 107.14 343.634 106.991 343.582 106.85C343.531 106.709 343.452 106.58 343.35 106.47C343.242 106.361 343.113 106.276 342.969 106.221C342.826 106.165 342.673 106.141 342.52 106.15H341.22V108.31Z" fill="white"/>
<path d="M347.77 110.75H350.77V111.9H346.32V105H347.74L347.77 110.75Z" fill="white"/>
<path d="M357.27 108.6C357.284 109.216 357.161 109.827 356.91 110.39C356.698 110.872 356.351 111.282 355.91 111.57C355.447 111.854 354.913 112 354.37 111.99C353.832 111.997 353.302 111.855 352.84 111.58C352.384 111.295 352.02 110.886 351.79 110.4C351.538 109.848 351.412 109.247 351.42 108.64V108.3C351.406 107.68 351.532 107.064 351.79 106.5C352.002 106.015 352.349 105.602 352.79 105.31C353.255 105.041 353.783 104.9 354.32 104.9C354.857 104.9 355.385 105.041 355.85 105.31C356.291 105.602 356.638 106.015 356.85 106.5C357.107 107.061 357.233 107.673 357.22 108.29L357.27 108.6ZM355.83 108.29C355.866 107.714 355.73 107.139 355.44 106.64C355.319 106.459 355.153 106.312 354.959 106.214C354.764 106.115 354.548 106.069 354.33 106.08C354.113 106.069 353.898 106.114 353.703 106.21C353.509 106.307 353.343 106.451 353.22 106.63C352.933 107.127 352.797 107.697 352.83 108.27V108.6C352.796 109.173 352.932 109.744 353.22 110.24C353.339 110.428 353.505 110.581 353.701 110.684C353.898 110.788 354.118 110.838 354.34 110.83C354.557 110.839 354.773 110.791 354.966 110.691C355.158 110.591 355.322 110.442 355.44 110.26C355.722 109.765 355.857 109.199 355.83 108.63V108.29Z" fill="white"/>
<path d="M364.21 111.9H362.78L360 107.36V111.9H358.57V105H360L362.77 109.56V105H364.19L364.21 111.9Z" fill="white"/>
</g>
<defs>
<clipPath id="clip0_49_156">
<rect width="422.96" height="113.66" fill="white"/>
</clipPath>
</defs>
</svg>
