<svg xmlns="http://www.w3.org/2000/svg" viewBox="0 0 422.96 113.66"><defs><style>.cls-1{fill:#231f20;}.cls-2{fill:#4583c4;}</style></defs><g id="Layer_2" data-name="Layer 2"><g id="Layer_1-2" data-name="Layer 1"><path class="cls-1" d="M51.4,53.94,64.12,26.39H77.9l-20.07,39V87.54H45V65.36L25,26.39H38.76Z"/><path class="cls-1" d="M80.65,64.4a26.85,26.85,0,0,1,2.6-12.05,19,19,0,0,1,7.5-8.19,21.85,21.85,0,0,1,11.35-2.9q9.2,0,15,5.63t6.48,15.28l.09,3.11q0,10.45-5.84,16.78t-15.66,6.31q-9.82,0-15.69-6.29T80.65,64.94Zm12.13.86q0,6.48,2.44,9.9a8.74,8.74,0,0,0,13.85,0q2.49-3.37,2.48-10.82,0-6.36-2.48-9.85a8.06,8.06,0,0,0-7-3.49,7.92,7.92,0,0,0-6.88,3.47Q92.78,58,92.78,65.26Z"/><path class="cls-1" d="M161,82.92q-4.48,5.46-12.43,5.45-7.31,0-11.15-4.19t-3.92-12.31V42.1h12.13V71.49q0,7.1,6.47,7.1,6.18,0,8.48-4.29V42.1h12.18V87.54H161.29Z"/><path class="cls-2" d="M233.24,67.17Q232.52,77,226,82.71t-17.32,5.66q-11.76,0-18.49-7.91T183.4,58.73V55a36.69,36.69,0,0,1,3.1-15.54,23.42,23.42,0,0,1,8.88-10.31,24.94,24.94,0,0,1,13.42-3.59q10.59,0,17,5.67t7.47,15.92H220.73q-.47-5.93-3.3-8.59t-8.63-2.67q-6.3,0-9.43,4.52t-3.21,14V59q0,9.91,3,14.49t9.47,4.58q5.84,0,8.72-2.67t3.29-8.25Z"/><path class="cls-2" d="M241.41,64.4A26.85,26.85,0,0,1,244,52.35a19,19,0,0,1,7.5-8.19,21.85,21.85,0,0,1,11.35-2.9q9.19,0,15,5.63t6.48,15.28l.09,3.11q0,10.45-5.84,16.78T263,88.37q-9.83,0-15.69-6.29t-5.85-17.14Zm12.13.86q0,6.48,2.44,9.9a8.74,8.74,0,0,0,13.85,0q2.49-3.37,2.48-10.82,0-6.36-2.48-9.85a8.06,8.06,0,0,0-7-3.49A7.92,7.92,0,0,0,256,54.51Q253.54,58,253.54,65.26Z"/><path class="cls-2" d="M292.61,64.48q0-10.62,4.77-16.92a15.46,15.46,0,0,1,13-6.3,13.94,13.94,0,0,1,11,5V23h12.18v64.5h-11L322,82.71a14.29,14.29,0,0,1-11.68,5.66,15.44,15.44,0,0,1-12.87-6.31Q292.62,75.73,292.61,64.48Zm12.14.9q0,6.41,2.22,9.8a7.24,7.24,0,0,0,6.47,3.41q5.63,0,7.94-4.75v-18q-2.26-4.76-7.86-4.75Q304.75,51.13,304.75,65.38Z"/><path class="cls-2" d="M366.45,88.37q-10,0-16.27-6.13T343.9,65.91V64.73a27.51,27.51,0,0,1,2.65-12.24A19.4,19.4,0,0,1,354,44.18a21,21,0,0,1,11.07-2.92q9.31,0,14.68,5.88t5.35,16.67v5H356.21a11.23,11.23,0,0,0,3.55,7.14,10.68,10.68,0,0,0,7.49,2.69,13.08,13.08,0,0,0,11-5.08l6,6.68a18.22,18.22,0,0,1-7.39,6A24.25,24.25,0,0,1,366.45,88.37ZM365.07,51a7.59,7.59,0,0,0-5.86,2.45,12.67,12.67,0,0,0-2.88,7h16.88v-1A9,9,0,0,0,371,53.26,7.81,7.81,0,0,0,365.07,51Z"/><polygon class="cls-1" points="412.71 69.59 412.71 103.41 381.06 103.41 381.06 113.66 422.96 113.66 422.96 111.48 422.96 103.41 422.96 69.59 412.71 69.59"/><polygon class="cls-1" points="41.89 0 0 0 0 2.18 0 10.24 0 44.07 10.24 44.07 10.24 10.24 41.89 10.24 41.89 0"/><path class="cls-1" d="M258.18,109.47v2.43h-1.42V105h2.69a3.1,3.1,0,0,1,1.37.29,2.11,2.11,0,0,1,.91.81,2.25,2.25,0,0,1,.32,1.19,2,2,0,0,1-.7,1.6,2.88,2.88,0,0,1-1.92.59Zm0-1.16h1.27a1.26,1.26,0,0,0,.86-.26,1,1,0,0,0,.3-.76,1.13,1.13,0,0,0-.3-.82,1.08,1.08,0,0,0-.82-.32h-1.31Z"/><path class="cls-1" d="M269,108.6a4.17,4.17,0,0,1-.36,1.79,2.65,2.65,0,0,1-1,1.18,2.82,2.82,0,0,1-1.54.42,2.92,2.92,0,0,1-1.53-.41,2.79,2.79,0,0,1-1-1.18,4,4,0,0,1-.37-1.76v-.34a4.25,4.25,0,0,1,.36-1.8,2.81,2.81,0,0,1,1-1.19,3.08,3.08,0,0,1,3.07,0,2.81,2.81,0,0,1,1,1.19,4.24,4.24,0,0,1,.36,1.79Zm-1.44-.31a2.92,2.92,0,0,0-.39-1.65,1.25,1.25,0,0,0-1.11-.56,1.27,1.27,0,0,0-1.1.55,2.86,2.86,0,0,0-.39,1.64v.33a2.92,2.92,0,0,0,.39,1.64,1.34,1.34,0,0,0,2.21,0,2.84,2.84,0,0,0,.39-1.63Z"/><path class="cls-1" d="M275.69,109.91l.92-4.92H278l-1.53,6.91h-1.43l-1.13-4.62-1.12,4.62h-1.43L269.86,105h1.42l.93,4.91,1.14-4.91h1.2Z"/><path class="cls-1" d="M283.24,108.91h-2.73v1.84h3.21v1.15h-4.63V105h4.62v1.16h-3.2v1.64h2.73Z"/><path class="cls-1" d="M287.4,109.37h-1.13v2.53h-1.43V105h2.57a2.9,2.9,0,0,1,1.88.55,1.86,1.86,0,0,1,.67,1.54,2.1,2.1,0,0,1-.31,1.18,2.12,2.12,0,0,1-.92.75l1.49,2.82v.07h-1.53Zm-1.13-1.15h1.14a1.17,1.17,0,0,0,.83-.27,1,1,0,0,0,.3-.76,1,1,0,0,0-.28-.76,1.15,1.15,0,0,0-.85-.28h-1.14Z"/><path class="cls-1" d="M295.48,108.91h-2.73v1.84H296v1.15h-4.63V105H296v1.16h-3.2v1.64h2.73Z"/><path class="cls-1" d="M297.08,111.9V105h2.13a3.29,3.29,0,0,1,1.63.41,2.93,2.93,0,0,1,1.12,1.17,3.58,3.58,0,0,1,.4,1.72v.32a3.54,3.54,0,0,1-.4,1.71,2.82,2.82,0,0,1-1.11,1.16,3.37,3.37,0,0,1-1.63.42Zm1.43-5.75v4.6h.68a1.56,1.56,0,0,0,1.28-.54,2.5,2.5,0,0,0,.45-1.56v-.37a2.49,2.49,0,0,0-.44-1.59,1.53,1.53,0,0,0-1.27-.54Z"/><path class="cls-1" d="M306.39,111.9V105h2.42a3.13,3.13,0,0,1,1.91.49,1.65,1.65,0,0,1,.65,1.41,1.6,1.6,0,0,1-.26.89,1.54,1.54,0,0,1-.73.57,1.44,1.44,0,0,1,.84.53,1.62,1.62,0,0,1,.3,1,1.85,1.85,0,0,1-.63,1.51,2.91,2.91,0,0,1-1.81.52Zm1.43-4h1.05c.72,0,1.07-.3,1.07-.86a.81.81,0,0,0-.27-.68,1.49,1.49,0,0,0-.86-.2h-1Zm0,1v1.86H309a1.24,1.24,0,0,0,.79-.23.82.82,0,0,0,.28-.67.87.87,0,0,0-1-1Z"/><path class="cls-1" d="M315,108.1l1.44-3.11H318l-2.26,4.4v2.51h-1.45v-2.51L312,105h1.56Z"/><path class="cls-1" d="M325.2,110.09a.72.72,0,0,0-.28-.62,3.51,3.51,0,0,0-1-.46,7,7,0,0,1-1.17-.47,1.91,1.91,0,0,1-1.17-1.71,1.67,1.67,0,0,1,.31-1,2,2,0,0,1,.91-.68,3.27,3.27,0,0,1,1.32-.25,3.11,3.11,0,0,1,1.32.27,2.15,2.15,0,0,1,.9.75,2,2,0,0,1,.32,1.11h-1.42a.91.91,0,0,0-.3-.73,1.21,1.21,0,0,0-.84-.27,1.35,1.35,0,0,0-.81.22.68.68,0,0,0-.29.58.66.66,0,0,0,.34.57,3.74,3.74,0,0,0,1,.42,4.42,4.42,0,0,1,1.76.91,1.81,1.81,0,0,1,.56,1.35,1.67,1.67,0,0,1-.68,1.4,3,3,0,0,1-1.83.51,3.61,3.61,0,0,1-1.45-.29,2.27,2.27,0,0,1-1-.8,2,2,0,0,1-.35-1.17h1.43c0,.76.45,1.14,1.36,1.14a1.33,1.33,0,0,0,.8-.21A.67.67,0,0,0,325.2,110.09Z"/><path class="cls-1" d="M329.39,111.9H328V105h1.42Z"/><path class="cls-1" d="M332.86,105l1.78,5,1.76-5h1.87v6.91h-1.43V110l.14-3.26-1.86,5.15h-1l-1.86-5.14.15,3.25v1.89H331V105Z"/><path class="cls-1" d="M341.22,109.47v2.43H339.8V105h2.69a3.1,3.1,0,0,1,1.37.29,2.11,2.11,0,0,1,.91.81,2.25,2.25,0,0,1,.32,1.19,2,2,0,0,1-.7,1.6,2.88,2.88,0,0,1-1.92.59Zm0-1.16h1.27a1.28,1.28,0,0,0,.86-.26,1,1,0,0,0,.3-.76,1.13,1.13,0,0,0-.3-.82,1.08,1.08,0,0,0-.83-.32h-1.3Z"/><path class="cls-1" d="M347.77,110.75h3v1.15h-4.45V105h1.42Z"/><path class="cls-1" d="M357.27,108.6a4.17,4.17,0,0,1-.36,1.79,2.71,2.71,0,0,1-1,1.18,2.85,2.85,0,0,1-1.54.42,2.92,2.92,0,0,1-1.53-.41,2.81,2.81,0,0,1-1.05-1.18,4.1,4.1,0,0,1-.37-1.76v-.34a4.11,4.11,0,0,1,.37-1.8,2.75,2.75,0,0,1,1-1.19,3.06,3.06,0,0,1,3.06,0,2.75,2.75,0,0,1,1,1.19,4.09,4.09,0,0,1,.37,1.79Zm-1.44-.31a2.92,2.92,0,0,0-.39-1.65,1.26,1.26,0,0,0-1.11-.56,1.27,1.27,0,0,0-1.11.55,2.94,2.94,0,0,0-.39,1.64v.33a2.92,2.92,0,0,0,.39,1.64,1.27,1.27,0,0,0,1.12.59,1.25,1.25,0,0,0,1.1-.57,3,3,0,0,0,.39-1.63Z"/><path class="cls-1" d="M364.21,111.9h-1.43L360,107.36v4.54h-1.43V105H360l2.77,4.56V105h1.42Z"/></g></g></svg>